<svg width="21" height="20" viewBox="0 0 21 20" fill="none" xmlns="http://www.w3.org/2000/svg">
<mask id="mask0_20103_14759" style="mask-type:alpha" maskUnits="userSpaceOnUse" x="0" y="0" width="21" height="20">
<rect x="0.5" y="20" width="20" height="20" transform="rotate(-90 0.5 20)" fill="#D9D9D9"/>
</mask>
<g mask="url(#mask0_20103_14759)">
</g>
<mask id="mask1_20103_14759" style="mask-type:alpha" maskUnits="userSpaceOnUse" x="0" y="0" width="21" height="20">
<rect x="0.5" y="20" width="20" height="20" transform="rotate(-90 0.5 20)" fill="#D9D9D9"/>
</mask>
<g mask="url(#mask1_20103_14759)">
<path d="M13.7082 9.99817C13.7082 10.0955 13.6909 10.1928 13.6562 10.2902C13.6216 10.3875 13.5556 10.4775 13.4582 10.5602L9.79222 14.2482C9.65289 14.3735 9.48956 14.4325 9.30222 14.4252C9.11489 14.4185 8.95856 14.3525 8.83322 14.2272C8.69456 14.0745 8.62856 13.9148 8.63522 13.7482C8.64256 13.5815 8.70856 13.4288 8.83322 13.2902L12.1462 9.99817L8.85422 6.68617C8.71556 6.56084 8.64622 6.41484 8.64622 6.24817C8.64622 6.08151 8.71556 5.92184 8.85422 5.76917C8.99289 5.62984 9.15256 5.56017 9.33322 5.56017C9.51389 5.56017 9.66689 5.62984 9.79222 5.76917L13.4582 9.43617C13.5556 9.51884 13.6216 9.60884 13.6562 9.70617C13.6909 9.80351 13.7082 9.90084 13.7082 9.99817Z" fill="#4563FF"/>
</g>
</svg>
