<svg width="21" height="20" viewBox="0 0 21 20" fill="none" xmlns="http://www.w3.org/2000/svg">
<mask id="mask0_20103_14763" style="mask-type:alpha" maskUnits="userSpaceOnUse" x="0" y="0" width="21" height="20">
<rect x="20.5" width="20" height="20" transform="rotate(90 20.5 0)" fill="#D9D9D9"/>
</mask>
<g mask="url(#mask0_20103_14763)">
</g>
<mask id="mask1_20103_14763" style="mask-type:alpha" maskUnits="userSpaceOnUse" x="0" y="0" width="21" height="20">
<rect x="20.5" width="20" height="20" transform="rotate(90 20.5 0)" fill="#D9D9D9"/>
</mask>
<g mask="url(#mask1_20103_14763)">
<path d="M7.29178 10.0018C7.29178 9.90449 7.30911 9.80716 7.34378 9.70983C7.37844 9.61249 7.44444 9.52249 7.54178 9.43983L11.2078 5.75183C11.3471 5.62649 11.5104 5.56749 11.6978 5.57483C11.8851 5.58149 12.0414 5.64749 12.1668 5.77283C12.3054 5.92549 12.3714 6.08516 12.3648 6.25183C12.3574 6.41849 12.2914 6.57116 12.1668 6.70983L8.85378 10.0018L12.1458 13.3138C12.2844 13.4392 12.3538 13.5852 12.3538 13.7518C12.3538 13.9185 12.2844 14.0782 12.1458 14.2308C12.0071 14.3702 11.8474 14.4398 11.6668 14.4398C11.4861 14.4398 11.3331 14.3702 11.2078 14.2308L7.54178 10.5638C7.44444 10.4812 7.37844 10.3912 7.34378 10.2938C7.30911 10.1965 7.29178 10.0992 7.29178 10.0018Z" fill="#4563FF"/>
</g>
</svg>
