<svg width="24" height="47" viewBox="0 0 24 47" fill="none" xmlns="http://www.w3.org/2000/svg">
<path d="M12.35 25.4L7.275 30.475C7.14167 30.6083 6.971 30.679 6.763 30.687C6.55433 30.6957 6.375 30.625 6.225 30.475C6.075 30.325 6 30.15 6 29.95C6 29.75 6.075 29.575 6.225 29.425L11.3 24.35L6.225 19.275C6.09167 19.1417 6.021 18.9707 6.013 18.762C6.00433 18.554 6.075 18.375 6.225 18.225C6.375 18.075 6.55 18 6.75 18C6.95 18 7.125 18.075 7.275 18.225L12.35 23.3L17.425 18.225C17.5583 18.0917 17.7293 18.0207 17.938 18.012C18.146 18.004 18.325 18.075 18.475 18.225C18.625 18.375 18.7 18.55 18.7 18.75C18.7 18.95 18.625 19.125 18.475 19.275L13.4 24.35L18.475 29.425C18.6083 29.5583 18.679 29.729 18.687 29.937C18.6957 30.1457 18.625 30.325 18.475 30.475C18.325 30.625 18.15 30.7 17.95 30.7C17.75 30.7 17.575 30.625 17.425 30.475L12.35 25.4Z" fill="#4563FF"/>
</svg>
