<svg width="20" height="20" viewBox="0 0 20 20" fill="none" xmlns="http://www.w3.org/2000/svg">
<mask id="mask0_20131_236100" style="mask-type:alpha" maskUnits="userSpaceOnUse" x="0" y="0" width="20" height="20">
<rect x="20" y="20" width="20" height="20" transform="rotate(-180 20 20)" fill="#D9D9D9"/>
</mask>
<g mask="url(#mask0_20131_236100)">
</g>
<mask id="mask1_20131_236100" style="mask-type:alpha" maskUnits="userSpaceOnUse" x="0" y="0" width="20" height="20">
<rect x="20" y="20" width="20" height="20" transform="rotate(-180 20 20)" fill="#D9D9D9"/>
</mask>
<g mask="url(#mask1_20131_236100)">
<path d="M10.007 7.13284C10.1388 7.13284 10.2705 7.15631 10.4023 7.20323C10.534 7.25015 10.6558 7.33949 10.7677 7.47123L15.7596 12.4333C15.9292 12.6219 16.0091 12.843 15.9992 13.0966C15.9902 13.3501 15.9008 13.5617 15.7312 13.7314C15.5245 13.9191 15.3084 14.0084 15.0828 13.9994C14.8572 13.9895 14.6506 13.9001 14.4629 13.7314L10.007 9.24708L5.52409 13.703C5.35445 13.8906 5.15683 13.9845 4.93124 13.9845C4.70565 13.9845 4.48953 13.8906 4.28289 13.703C4.0943 13.5153 4 13.2991 4 13.0546C4 12.8101 4.0943 12.603 4.28289 12.4333L9.24634 7.47123C9.35823 7.33949 9.48005 7.25015 9.6118 7.20323C9.74354 7.15631 9.87529 7.13284 10.007 7.13284Z" fill="#4563FF"/>
</g>
</svg>
